<svg width="133" height="98" viewBox="0 0 133 98" fill="none" xmlns="http://www.w3.org/2000/svg">
<path d="M-0.0703125 37.168H14.4141L21.1641 60.0195C21.2578 60.3477 21.3516 60.7578 21.4453 61.25C21.5391 61.7188 21.6211 62.2227 21.6914 62.7617C21.7617 63.3008 21.8086 63.8281 21.832 64.3438H22.1133C22.2305 63.3828 22.3594 62.5508 22.5 61.8477C22.6641 61.1211 22.8164 60.5352 22.957 60.0898L29.8828 37.168H43.9102L28.1602 79.5312C26.9414 82.7656 25.5234 85.4727 23.9062 87.6523C22.3125 89.8555 20.332 91.5078 17.9648 92.6094C15.6211 93.7344 12.7031 94.2969 9.21094 94.2969C7.94531 94.2969 6.85547 94.2266 5.94141 94.0859C5.05078 93.9688 4.26562 93.8398 3.58594 93.6992V82.9062C4.10156 83 4.73438 83.0938 5.48438 83.1875C6.23438 83.2812 7.01953 83.3281 7.83984 83.3281C9.36328 83.3281 10.5938 83.0234 11.5312 82.4141C12.4922 81.8047 13.2773 80.9961 13.8867 79.9883C14.4961 79.0039 15.0234 77.9375 15.4688 76.7891L15.6094 76.4375L-0.0703125 37.168ZM78.0905 56.9961C78.0905 60.3242 77.6334 63.2773 76.7194 65.8555C75.8053 68.4336 74.4811 70.6016 72.7467 72.3594C71.0123 74.1172 68.9147 75.4531 66.4538 76.3672C63.9928 77.2578 61.2155 77.7031 58.1217 77.7031C55.2389 77.7031 52.5905 77.2578 50.1764 76.3672C47.7858 75.4531 45.6998 74.1172 43.9186 72.3594C42.1373 70.6016 40.7545 68.4336 39.7702 65.8555C38.8092 63.2773 38.3288 60.3242 38.3288 56.9961C38.3288 52.5898 39.1256 48.8633 40.7194 45.8164C42.3366 42.7695 44.6334 40.4492 47.61 38.8555C50.61 37.2617 54.1842 36.4648 58.3327 36.4648C62.153 36.4648 65.5514 37.2617 68.528 38.8555C71.5045 40.4492 73.8366 42.7695 75.5241 45.8164C77.235 48.8633 78.0905 52.5898 78.0905 56.9961ZM52.2858 56.9961C52.2858 59.2695 52.485 61.1914 52.8834 62.7617C53.2819 64.3086 53.9147 65.4922 54.7819 66.3125C55.6725 67.1094 56.8327 67.5078 58.2623 67.5078C59.692 67.5078 60.8288 67.1094 61.6725 66.3125C62.5163 65.4922 63.1256 64.3086 63.5006 62.7617C63.8991 61.1914 64.0983 59.2695 64.0983 56.9961C64.0983 54.7227 63.8991 52.8242 63.5006 51.3008C63.1256 49.7773 62.5045 48.6289 61.6373 47.8555C60.7936 47.082 59.6452 46.6953 58.192 46.6953C56.1061 46.6953 54.5944 47.5625 53.6569 49.2969C52.7428 51.0312 52.2858 53.5977 52.2858 56.9961ZM116.068 37.168V77H105.697L103.974 72.043H103.165C102.345 73.3789 101.302 74.4688 100.036 75.3125C98.7942 76.1328 97.4114 76.7305 95.888 77.1055C94.3645 77.5039 92.7825 77.7031 91.1419 77.7031C88.5403 77.7031 86.1848 77.1992 84.0755 76.1914C81.9895 75.1836 80.3255 73.6016 79.0833 71.4453C77.8645 69.2891 77.2552 66.5117 77.2552 63.1133V37.168H91.0013V58.9297C91.0013 61.5078 91.3645 63.4766 92.0911 64.8359C92.8411 66.1719 94.0598 66.8398 95.7473 66.8398C97.4817 66.8398 98.8177 66.3711 99.7552 65.4336C100.716 64.4961 101.384 63.1133 101.759 61.2852C102.134 59.457 102.322 57.2305 102.322 54.6055V37.168H116.068Z" fill="#1F2223"/>
<path d="M115.197 71.1641C115.197 68.6797 115.924 66.9336 117.377 65.9258C118.853 64.918 120.623 64.4141 122.685 64.4141C124.631 64.4141 126.318 64.918 127.748 65.9258C129.178 66.9336 129.893 68.6797 129.893 71.1641C129.893 73.5312 129.178 75.2422 127.748 76.2969C126.318 77.3516 124.631 77.8789 122.685 77.8789C120.623 77.8789 118.853 77.3516 117.377 76.2969C115.924 75.2422 115.197 73.5312 115.197 71.1641Z" fill="#F9D262"/>
</svg>
